<?xml version="1.0" encoding="UTF-8"?>
<svg width="400" height="200" xmlns="http://www.w3.org/2000/svg">
  <!-- Background -->
  <rect width="400" height="200" fill="#f8f9fa" stroke="#e9ecef" stroke-width="1"/>
  
  <!-- Grid lines -->
  <defs>
    <pattern id="grid" width="20" height="20" patternUnits="userSpaceOnUse">
      <path d="M 20 0 L 0 0 0 20" fill="none" stroke="#e9ecef" stroke-width="0.5"/>
    </pattern>
  </defs>
  <rect width="400" height="200" fill="url(#grid)"/>
  
  <!-- Axes -->
  <line x1="40" y1="40" x2="40" y2="160" stroke="#6c757d" stroke-width="2"/>
  <line x1="40" y1="160" x2="360" y2="160" stroke="#6c757d" stroke-width="2"/>
  
  <!-- Y-axis labels -->
  <text x="30" y="40" text-anchor="end" font-family="Arial, sans-serif" font-size="10" fill="#6c757d">0.636</text>
  <text x="30" y="165" text-anchor="end" font-family="Arial, sans-serif" font-size="10" fill="#6c757d">0.625</text>
  <text x="30" y="105.0" text-anchor="end" font-family="Arial, sans-serif" font-size="10" fill="#6c757d">0.630</text>
  
  <!-- Data line -->
  <polyline points="40.0,40.0 93.33333333333333,40.0 146.66666666666666,64.00000000000024 200.0,88.0000000000005 253.33333333333331,111.9999999999995 306.6666666666667,135.99999999999974 360.0,160.0" fill="none" stroke="#84cc16" stroke-width="2.5" stroke-linecap="round" stroke-linejoin="round"/>
  
  <!-- Data points -->
  <circle cx="40.0" cy="40.0" r="4" fill="#84cc16" stroke="white" stroke-width="1.5"/><circle cx="93.33333333333333" cy="40.0" r="4" fill="#84cc16" stroke="white" stroke-width="1.5"/><circle cx="146.66666666666666" cy="64.00000000000024" r="4" fill="#84cc16" stroke="white" stroke-width="1.5"/><circle cx="200.0" cy="88.0000000000005" r="4" fill="#84cc16" stroke="white" stroke-width="1.5"/><circle cx="253.33333333333331" cy="111.9999999999995" r="4" fill="#84cc16" stroke="white" stroke-width="1.5"/><circle cx="306.6666666666667" cy="135.99999999999974" r="4" fill="#84cc16" stroke="white" stroke-width="1.5"/><circle cx="360.0" cy="160.0" r="4" fill="#84cc16" stroke="white" stroke-width="1.5"/>
  
  <!-- X-axis labels (dates) -->
  <text x="40.0" y="180" text-anchor="middle" font-family="Arial, sans-serif" font-size="9" fill="#6c757d" transform="rotate(-45 40.0 180)">12-18</text><text x="93.33333333333333" y="180" text-anchor="middle" font-family="Arial, sans-serif" font-size="9" fill="#6c757d" transform="rotate(-45 93.33333333333333 180)">12-19</text><text x="146.66666666666666" y="180" text-anchor="middle" font-family="Arial, sans-serif" font-size="9" fill="#6c757d" transform="rotate(-45 146.66666666666666 180)">12-20</text><text x="200.0" y="180" text-anchor="middle" font-family="Arial, sans-serif" font-size="9" fill="#6c757d" transform="rotate(-45 200.0 180)">12-21</text><text x="253.33333333333331" y="180" text-anchor="middle" font-family="Arial, sans-serif" font-size="9" fill="#6c757d" transform="rotate(-45 253.33333333333331 180)">12-22</text><text x="306.6666666666667" y="180" text-anchor="middle" font-family="Arial, sans-serif" font-size="9" fill="#6c757d" transform="rotate(-45 306.6666666666667 180)">12-23</text><text x="360.0" y="180" text-anchor="middle" font-family="Arial, sans-serif" font-size="9" fill="#6c757d" transform="rotate(-45 360.0 180)">12-24</text>
  
  <!-- Title -->
  <text x="200.0" y="20" text-anchor="middle" font-family="Arial, sans-serif" font-size="14" font-weight="bold" fill="#212529">NDVI Time Series (7 Days)</text>
  
  <!-- Legend -->
  <text x="360" y="30" text-anchor="end" font-family="Arial, sans-serif" font-size="11" fill="#6c757d">Avg: 0.6312</text>
</svg>